<svg width="48" height="48" viewBox="0 0 32 32" fill="none" xmlns="http://www.w3.org/2000/svg">
    <circle cx="16" cy="16" r="16" fill="#1E2026" />

    <path
      d="M 16 4 L 9.6847 7.6761 L 12.0065 9.0342 L 16 6.7161 L 19.9935 9.0342 L 22.3154 7.6761 L 16 4 Z"
      fill="#F0B90B"
    />
    
    <path
      d="M 19.9935 10.9541 L 22.3154 12.3122 V 15.0283 L 18.3218 17.3463 V 21.9824 L 16 23.3405 L 13.6782 21.9824 V 17.3463 L 9.6846 15.0283 V 12.3122 L 12.0065 10.9541 L 16 13.2722 L 19.9935 10.9541 Z"
      fill="#F0B90B"
    />

    <path d="M 22.3154 16.9483 V 19.6644 L 19.9935 21.0224 V 18.3063 L 22.3154 16.9483 Z" fill="#F0B90B" />

    <path
      d="M 19.9704 22.9424 L 23.9639 20.6244 V 15.9883 L 26.2857 14.6302 V 21.9824 L 19.9704 25.6585 V 22.9424 Z"
      fill="#F0B90B"
    />

    <path
      d="M 23.9639 11.3522 L 21.6421 9.9941 L 23.9639 8.6361 L 26.2857 9.9941 V 12.7102 L 23.9639 14.0683 V 11.3522 Z"
      fill="#F0B90B"
    />

    <path
      d="M 13.6782 26.642 V 23.9259 L 16 25.2839 L 18.3218 23.9259 V 26.642 L 16 28 L 13.6782 26.642 Z"
      fill="#F0B90B"
    />

    <path d="M 12.0065 21.0224 L 9.6846 19.6644 V 16.9483 L 12.0065 18.3063 V 21.0224 Z" fill="#F0B90B" />

    <path d="M 16 11.3522 L 13.6782 9.9941 L 16 8.6361 L 18.3218 9.9941 L 16 11.3522 Z" fill="#F0B90B" />

    <path
      d="M 10.358 9.9941 L 8.0361 11.3522 V 14.0683 L 5.7143 12.7102 V 9.9941 L 8.0361 8.6361 L 10.358 9.9941 Z"
      fill="#F0B90B"
    />

    <path d="M 5.7143 14.6302 L 8.0361 15.9883 V 20.6244 L 12.0297 22.9424 V 25.6585 L 5.7143 21.9824 V 14.6302 Z" fill="#F0B90B" />
</svg>
