<svg version="1.2" xmlns="http://www.w3.org/2000/svg" viewBox="0 0 110 51" width="110" height="51">
	<title>math-svg</title>
	<style>
		.s0 { opacity: 0;fill: #ffffff } 
		.s1 { fill: #ffffff } 
	</style>
	<g id="Page-1">
		<g id="A3">
			<g id="Logo_Icon">
				<path id="Rectangle" class="s0" d="m-9-37h128v128h-128z"/>
				<path id="Combined-Shape" fill-rule="evenodd" class="s1" d="m81.8 20.8c-2.2-2.3-2.2-6 0-8.3 2.3-2.3 6-2.3 8.3 0 2.3 2.3 2.3 6 0 8.3-2.3 2.2-6 2.2-8.3 0zm-19.5 19.5c-1.7-1.7-1.7-4.4 0-6.1 1.7-1.7 4.4-1.7 6.1 0 1.8 1.7 1.8 4.4 0 6.1-1.7 1.8-4.4 1.8-6.1 0zm30.9-10.3c-1.7-1.7-1.7-4.4 0-6.1 1.7-1.8 4.5-1.8 6.2 0 1.7 1.7 1.7 4.4 0 6.1-1.7 1.7-4.5 1.7-6.2 0zm-10.3 10.3c-1.7-1.7-1.7-4.4 0-6.1 1.7-1.7 4.5-1.7 6.2 0 1.7 1.7 1.7 4.4 0 6.1-1.7 1.8-4.5 1.8-6.2 0zm21.6-1c-1.1-1.1-1.1-3 0-4.1 1.2-1.1 3-1.1 4.1 0 1.2 1.1 1.2 3 0 4.1-1.1 1.2-2.9 1.2-4.1 0zm-10.3 10.3c-1.1-1.1-1.1-3 0-4.1 1.2-1.1 3-1.1 4.1 0 1.2 1.1 1.2 3 0 4.1-1.1 1.2-2.9 1.2-4.1 0zm-22.7-18.5c-2.2-2.3-2.2-6 0-8.3 2.3-2.3 6-2.3 8.3 0 2.3 2.3 2.3 6 0 8.3-2.3 2.2-6 2.2-8.3 0zm0-20.6c-2.2-2.3-2.2-6 0-8.3 2.3-2.3 6-2.3 8.3 0 2.3 2.3 2.3 6 0 8.3-2.3 2.2-6 2.2-8.3 0zm-10.3 10.3c-2.2-2.3-2.2-6 0-8.3 2.3-2.3 6-2.3 8.3 0 2.3 2.3 2.3 6 0 8.3-2.3 2.2-6 2.2-8.3 0zm-20.7 0c-2.3-2.3-2.3-6 0-8.3 2.3-2.3 6-2.3 8.3 0 2.2 2.3 2.2 6 0 8.3-2.3 2.2-6 2.2-8.3 0zm-19.6 19.5c-1.7-1.7-1.7-4.4 0-6.1 1.7-1.7 4.5-1.7 6.2 0 1.7 1.7 1.7 4.4 0 6.1-1.7 1.8-4.5 1.8-6.2 0zm31-10.3c-1.7-1.7-1.7-4.4 0-6.1 1.7-1.8 4.4-1.8 6.1 0 1.8 1.7 1.8 4.4 0 6.1-1.7 1.7-4.4 1.7-6.1 0zm-10.3 10.3c-1.8-1.7-1.8-4.4 0-6.1 1.7-1.7 4.4-1.7 6.1 0 1.7 1.7 1.7 4.4 0 6.1-1.7 1.8-4.4 1.8-6.1 0zm-40.2-1c-1.2-1.1-1.2-3 0-4.1 1.1-1.1 2.9-1.1 4.1 0 1.1 1.1 1.1 3 0 4.1-1.2 1.2-3 1.2-4.1 0zm10.3 10.3c-1.2-1.1-1.2-3 0-4.1 1.1-1.1 2.9-1.1 4.1 0 1.1 1.1 1.1 3 0 4.1-1.2 1.2-3 1.2-4.1 0zm41.2 0c-1.1-1.1-1.1-3 0-4.1 1.1-1.1 3-1.1 4.1 0 1.2 1.1 1.2 3 0 4.1-1.1 1.2-3 1.2-4.1 0zm-42.3-19.6c-1.7-1.7-1.7-4.4 0-6.1 1.7-1.8 4.5-1.8 6.2 0 1.7 1.7 1.7 4.4 0 6.1-1.7 1.7-4.5 1.7-6.2 0zm19.6 1.1c-2.3-2.3-2.3-6 0-8.3 2.3-2.3 6-2.3 8.3 0 2.2 2.3 2.2 6 0 8.3-2.3 2.2-6 2.2-8.3 0zm0-20.6c-2.3-2.3-2.3-6 0-8.3 2.3-2.3 6-2.3 8.3 0 2.2 2.3 2.2 6 0 8.3-2.3 2.2-6 2.2-8.3 0zm-10.3 10.3c-2.3-2.3-2.3-6 0-8.3 2.3-2.3 6-2.3 8.3 0 2.2 2.3 2.2 6 0 8.3-2.3 2.2-6 2.2-8.3 0z"/>
			</g>
		</g>
	</g>
</svg>