<svg version="1.2" xmlns="http://www.w3.org/2000/svg" viewBox="0 0 65 62" width="65" height="62">
	<title>tokenpocket-svg</title>
	<style>
		.s0 { fill: #29aeff } 
		.s1 { fill: #2761e7 } 
	</style>
	<path id="Layer" class="s0" d="m28.4 18.4v42.4c0 0.5-0.4 0.9-0.9 0.9h-15.8c-0.5 0-0.9-0.4-0.9-0.9v-35.1h-9.7c-0.5 0-0.9-0.4-0.9-0.9v-19.2c0-0.5 0.4-0.9 0.9-0.9h25.2v13.7z"/>
	<path id="Layer" class="s1" d="m65 21.4c0 11.6-9.3 21-20.9 21h-6.2v14c0 0.5-0.3 0.8-0.8 0.8h-15.9c-0.5 0-0.8-0.3-0.8-0.8v-55.3c0-0.5 0.3-0.8 0.8-0.8h16.6 6.1c11.6 0 21.1 9.4 21.1 21.1z"/>
</svg>