<svg width="25" height="12" viewBox="0 0 25 12" fill="none" xmlns="http://www.w3.org/2000/svg">
<path d="M3.70252 0.438262C2.83999 -0.251757 1.58141 -0.111914 0.891387 0.75061C0.201368 1.61313 0.341211 2.87172 1.20373 3.56174L3.70252 0.438262ZM23.7025 3.56174C24.565 2.87172 24.7049 1.61313 24.0149 0.75061C23.3248 -0.111914 22.0663 -0.251757 21.2037 0.438262L23.7025 3.56174ZM12.4531 10L11.2037 11.5617C11.9342 12.1461 12.9721 12.1461 13.7025 11.5617L12.4531 10ZM1.20373 3.56174L11.2037 11.5617L13.7025 8.43826L3.70252 0.438262L1.20373 3.56174ZM13.7025 11.5617L23.7025 3.56174L21.2037 0.438262L11.2037 8.43826L13.7025 11.5617Z" fill="#EAEFED"/>
</svg>

