<svg width="50" height="50" viewBox="0 0 50 50" fill="none" xmlns="http://www.w3.org/2000/svg">
<g filter="url(#filter0_iiii_1083_17927)">
<rect width="50" height="50" fill="black" fill-opacity="0.01"/>
<path d="M30.7028 26.3285C31.4459 23.1801 29.496 20.0255 26.3476 19.2824C23.1992 18.5393 20.0446 20.4892 19.3015 23.6375C18.5584 26.7859 20.5083 29.9405 23.6567 30.6836C26.805 31.4267 29.9597 29.4768 30.7028 26.3285Z" stroke="white" stroke-width="0.346347" stroke-miterlimit="10"/>
<path d="M41.5474 25.0293C41.5474 15.8911 34.1394 8.48318 25.0012 8.48318C15.863 8.48318 8.45508 15.8911 8.45508 25.0293C8.45508 34.1675 15.863 41.5754 25.0012 41.5754C34.1394 41.5754 41.5474 34.1675 41.5474 25.0293Z" stroke="white" stroke-width="0.2" stroke-miterlimit="10" stroke-dasharray="3.45 3.45"/>
<path d="M34.2313 38.7287C41.8188 33.6359 43.8411 23.3565 38.7483 15.769C33.6555 8.18157 23.3761 6.15926 15.7886 11.2521C8.20115 16.3449 6.17882 26.6242 11.2716 34.2117C16.3644 41.7992 26.6438 43.8215 34.2313 38.7287Z" stroke="white" stroke-width="1.72859" stroke-miterlimit="10" stroke-dasharray="15.77 39.43"/>
<path d="M27.2231 25C27.2226 25.4396 27.0917 25.8691 26.847 26.2343C26.6024 26.5996 26.255 26.884 25.8487 27.0519C25.4424 27.2197 24.9955 27.2633 24.5645 27.1772C24.1334 27.091 23.7376 26.8791 23.427 26.568C23.1163 26.257 22.9049 25.8609 22.8194 25.4297C22.7338 24.9986 22.778 24.5517 22.9464 24.1456C23.1147 23.7396 23.3997 23.3925 23.7652 23.1484C24.1307 22.9042 24.5604 22.7739 25 22.7739C25.2922 22.7739 25.5815 22.8315 25.8515 22.9434C26.1214 23.0554 26.3666 23.2194 26.5731 23.4261C26.7795 23.6329 26.9432 23.8783 27.0548 24.1484C27.1663 24.4184 27.2235 24.7078 27.2231 25V25Z" fill="#00FFC5"/>
<path d="M25 19.1397V14.9631" stroke="white" stroke-width="1.72859" stroke-miterlimit="10"/>
<path d="M19.1429 25H14.9663" stroke="white" stroke-width="1.72859" stroke-miterlimit="10"/>
<path d="M25 30.8572V35.0338" stroke="white" stroke-width="1.72859" stroke-miterlimit="10"/>
<path d="M30.8604 25H35.0369" stroke="white" stroke-width="1.72859" stroke-miterlimit="10"/>
<path d="M25 14.9633V4.81982" stroke="white" stroke-width="0.346347" stroke-miterlimit="10"/>
<path d="M23.53 3.19428V0.157431H26.4698V3.19428L24.9999 4.82751L23.53 3.19428Z" fill="white" stroke="white" stroke-width="0.314861"/>
<path d="M14.9663 25H4.81982" stroke="white" stroke-width="0.346347" stroke-miterlimit="10"/>
<path d="M0.157431 23.5302H3.19435L4.83026 25.0001L3.19435 26.4701H0.157431V23.5302Z" fill="white" stroke="white" stroke-width="0.314861"/>
<path d="M25 35.0337V45.1772" stroke="white" stroke-width="0.346347" stroke-miterlimit="10"/>
<path d="M23.53 49.8425V46.8056L24.9999 45.1696L26.4698 46.8056V49.8425H23.53Z" fill="white" stroke="white" stroke-width="0.314861"/>
<path d="M35.0366 25H45.1801" stroke="white" stroke-width="0.346347" stroke-miterlimit="10"/>
<path d="M46.8055 23.5302H49.8425V26.4701H46.8055L45.1696 25.0001L46.8055 23.5302Z" fill="white" stroke="white" stroke-width="0.314861"/>
</g>
<defs>
<filter id="filter0_iiii_1083_17927" x="0" y="0" width="50" height="50" filterUnits="userSpaceOnUse" color-interpolation-filters="sRGB">
<feFlood flood-opacity="0" result="BackgroundImageFix"/>
<feBlend mode="normal" in="SourceGraphic" in2="BackgroundImageFix" result="shape"/>
<feColorMatrix in="SourceAlpha" type="matrix" values="0 0 0 0 0 0 0 0 0 0 0 0 0 0 0 0 0 0 127 0" result="hardAlpha"/>
<feOffset dy="16"/>
<feComposite in2="hardAlpha" operator="arithmetic" k2="-1" k3="1"/>
<feColorMatrix type="matrix" values="0 0 0 0 0.0941176 0 0 0 0 0.996078 0 0 0 0 0.996078 0 0 0 0.08 0"/>
<feBlend mode="normal" in2="shape" result="effect1_innerShadow_1083_17927"/>
<feColorMatrix in="SourceAlpha" type="matrix" values="0 0 0 0 0 0 0 0 0 0 0 0 0 0 0 0 0 0 127 0" result="hardAlpha"/>
<feOffset dy="-16"/>
<feComposite in2="hardAlpha" operator="arithmetic" k2="-1" k3="1"/>
<feColorMatrix type="matrix" values="0 0 0 0 0.0941176 0 0 0 0 0.996078 0 0 0 0 0.996078 0 0 0 0.08 0"/>
<feBlend mode="normal" in2="effect1_innerShadow_1083_17927" result="effect2_innerShadow_1083_17927"/>
<feColorMatrix in="SourceAlpha" type="matrix" values="0 0 0 0 0 0 0 0 0 0 0 0 0 0 0 0 0 0 127 0" result="hardAlpha"/>
<feOffset dx="16"/>
<feComposite in2="hardAlpha" operator="arithmetic" k2="-1" k3="1"/>
<feColorMatrix type="matrix" values="0 0 0 0 0.0941176 0 0 0 0 0.996078 0 0 0 0 0.996078 0 0 0 0.08 0"/>
<feBlend mode="normal" in2="effect2_innerShadow_1083_17927" result="effect3_innerShadow_1083_17927"/>
<feColorMatrix in="SourceAlpha" type="matrix" values="0 0 0 0 0 0 0 0 0 0 0 0 0 0 0 0 0 0 127 0" result="hardAlpha"/>
<feOffset dx="-16"/>
<feComposite in2="hardAlpha" operator="arithmetic" k2="-1" k3="1"/>
<feColorMatrix type="matrix" values="0 0 0 0 0.0941176 0 0 0 0 0.996078 0 0 0 0 0.996078 0 0 0 0.08 0"/>
<feBlend mode="normal" in2="effect3_innerShadow_1083_17927" result="effect4_innerShadow_1083_17927"/>
</filter>
</defs>
</svg>
