<svg width="37" height="38" viewBox="0 0 37 38" fill="none" xmlns="http://www.w3.org/2000/svg">
<path d="M27.8037 4.92599C27.8037 4.61689 27.8037 4.3096 27.8037 3.99512C26.9581 4.39586 26.3584 4.94396 26.3301 5.9503C26.8042 5.64301 27.2712 5.3411 27.7365 5.0374C27.7772 5.01224 27.8037 4.9781 27.8037 4.92599Z" fill="white"/>
<path d="M24.5373 5.20703C25.0539 3.7622 25.5757 2.31918 26.0959 0.87615C26.1153 0.824035 26.1684 0.773718 26.1047 0.698242C26.064 0.750356 26.0269 0.791689 25.9968 0.836615C25.0415 2.23651 24.0862 3.63641 23.1309 5.03631C23.0689 5.12796 22.9823 5.21422 22.9593 5.31665C22.8195 5.90069 22.6957 6.48832 22.5488 7.15143C23.1026 6.6824 23.5855 6.25111 24.0915 5.85396C24.3161 5.67785 24.4435 5.4658 24.5355 5.20882L24.5373 5.20703Z" fill="white"/>
<path d="M22.9861 14.371C23.0781 14.3799 23.1259 14.3188 23.1843 14.2793C23.8937 13.8013 24.9905 13.2694 25.7247 12.8381C26.4111 12.4355 26.5084 11.9342 26.7649 11.1668C26.8428 10.9332 27.002 10.7301 27.0904 10.4229C26.075 11.316 25.1126 12.166 24.1467 13.0106C23.6955 13.4041 23.209 13.76 22.9844 14.371H22.9861Z" fill="white"/>
<path d="M24.8471 8.71207C25.2151 7.34811 25.5601 6.06682 25.9068 4.78553L25.8591 4.76397C24.4243 6.62391 22.9896 8.48385 21.5212 10.3851C21.217 9.28533 21.0631 8.34548 20.7411 7.22771C20.6066 7.65182 18.7332 17.6596 18.7721 17.9471C18.7951 17.9291 18.8181 17.9147 18.8358 17.8968C21.4912 15.1275 36.0012 0 36.0012 0C36.0012 0 27.8687 6.27169 24.8471 8.71207Z" fill="white"/>
<path d="M24.0682 12.8171C24.3295 13.1219 24.575 13.4451 24.8318 13.7544C26.925 16.2893 28.025 19.2167 28.1295 22.5204C28.2091 24.9606 27.675 27.2738 26.5705 29.4417C25.8341 30.8869 24.9432 32.219 23.6136 33.1932C24.6568 32.1151 25.5727 30.9423 26.2909 29.6102C27.1977 27.9272 27.7273 25.7778 27.6977 25.263C27.3455 26.8721 26.8818 28.352 26.0409 29.6887C27.0932 27.5878 27.6682 25.3761 27.725 23.0098C27.7727 21.0497 26.8909 17.4113 25.9977 16.3586C27.6091 19.5676 28.0227 22.9197 27.075 26.3966C26.1227 29.8965 24.075 32.586 21.0045 34.4353C15.7295 37.6143 8.98636 36.7046 4.73864 32.2074C1.89545 29.1969 0.645454 25.5678 1.07273 21.4076C1.49545 17.2844 3.475 14.0546 6.73182 11.6028C3.25 14.0499 1.23409 17.4206 0.863636 21.6962C0.490909 25.9879 1.92045 29.6795 4.87045 32.7753C4.81591 32.7546 4.77727 32.7269 4.74545 32.6922C1.93182 29.7949 0.561364 26.3227 0.704545 22.2433C0.772727 20.2856 1.26136 18.4317 2.12045 16.6887C3.24318 14.4101 4.86818 12.5817 6.98864 11.208C7.075 11.1503 7.21364 11.1388 7.23636 10.9979C7.1 10.9771 7.00682 11.0764 6.90909 11.1388C4.80909 12.487 3.17955 14.2854 2.025 16.5179C0.945454 18.6072 0.470455 20.8581 0.438636 23.1991C0.4 26.1426 1.26818 28.8183 2.90909 31.2401C2.975 31.3371 3.03636 31.4363 3.1 31.5333C2.49773 30.8684 2.07955 30.0812 1.61591 29.3262C2.24773 30.8315 3.19545 32.122 4.27273 33.3248C3.04545 32.1474 2.09318 30.7714 1.36591 29.2316C0.640909 27.7009 0.209091 26.0849 0 24.4019C0.384091 30.8361 5.45 37.9998 14.2114 37.9998C22.3523 37.9998 27.2659 31.6187 28.2386 26.4289C28.1182 26.8214 28 27.2138 27.8455 27.5947C27.6909 27.9757 27.5955 28.3797 27.4068 28.7491C27.2205 29.1138 27.0682 29.4971 26.8773 29.8595C26.6932 30.2104 26.4773 30.5429 26.275 30.8846C26.2636 30.7876 26.2886 30.7114 26.3295 30.6468C27.3841 28.853 28.0955 26.9368 28.3591 24.8544C28.5591 23.2868 28.5091 21.7331 28.1886 20.1886C27.5864 17.2913 26.1773 14.8672 24.075 12.8218L24.0682 12.8171Z" fill="white"/>
<path d="M7.24805 10.9876C7.50487 10.9114 7.72986 10.7821 7.92305 10.5928C7.6685 10.6713 7.42759 10.7775 7.24805 10.9876Z" fill="white"/>
<path d="M7.95508 10.5764C8.24371 10.5256 8.47326 10.3479 8.72099 10.207C8.45281 10.3017 8.17099 10.3686 7.95508 10.5764Z" fill="white"/>
<path d="M7.95305 10.5762C7.95305 10.5762 7.94169 10.5784 7.93714 10.5784C7.9326 10.583 7.92805 10.5853 7.92578 10.5898C7.9326 10.5898 7.93714 10.5853 7.94396 10.5853C7.94624 10.583 7.95078 10.5784 7.95533 10.5762H7.95305Z" fill="white"/>
<path d="M7.24921 10.9873C7.24921 10.9873 7.24062 10.9895 7.23633 10.9916C7.23633 10.9916 7.23633 10.9937 7.23633 10.9959C7.23633 10.9959 7.24062 10.9959 7.24277 10.9959C7.24491 10.9916 7.24921 10.9895 7.25135 10.9873H7.24921Z" fill="white"/>
<path d="M14.3618 36.4933C7.00721 36.4933 1.02539 30.4169 1.02539 22.9462C1.02539 15.4754 7.00948 9.40137 14.3618 9.40137C21.714 9.40137 27.6981 15.4777 27.6981 22.9485C27.6981 30.4192 21.7163 36.4956 14.3618 36.4956V36.4933ZM14.5049 9.47524C7.28448 9.47524 1.41175 15.4408 1.41175 22.7753C1.41175 30.1099 7.28675 36.0754 14.5049 36.0754C21.7231 36.0754 27.5981 30.1076 27.5981 22.7753C27.5981 15.4431 21.7254 9.47755 14.5049 9.47755V9.47524Z" fill="white"/>
<path d="M14.3647 36.249C7.14421 36.249 1.27148 30.2834 1.27148 22.9489C1.27148 15.6143 7.14421 9.64648 14.3647 9.64648C21.5851 9.64648 27.4578 15.612 27.4578 22.9466C27.4578 30.2811 21.5851 36.2466 14.3647 36.2466V36.249ZM14.4283 9.64648C7.33967 9.64648 1.57148 15.5035 1.57148 22.7065C1.57148 29.9094 7.33967 35.7665 14.4283 35.7665C21.5169 35.7665 27.2851 29.9071 27.2851 22.7065C27.2851 15.5058 21.5192 9.64648 14.4283 9.64648Z" fill="white"/>
</svg>

