<svg version="1.2" xmlns="http://www.w3.org/2000/svg" viewBox="0 0 37 38" width="37" height="38">
	<title>2-svg</title>
	<style>
		.s0 { fill: #eaefed } 
	</style>
	<path id="Layer" class="s0" d="m27.4 20.1q-0.8 0.4-1.5 0.9c0-1 0.7-1.6 1.5-2q0 0.5 0 0.9 0 0.1 0 0.2z"/>
	<path id="Layer" class="s0" d="m24 20.2c-0.1 0.3-0.2 0.5-0.4 0.7-0.6 0.4-1.1 0.8-1.6 1.3 0.1-0.7 0.2-1.3 0.4-1.9 0-0.1 0.1-0.2 0.2-0.2q1.5-2.2 3-4.3 0 0 0.1-0.1c0 0.1 0 0.1 0 0.2q-0.9 2.1-1.7 4.3z"/>
	<path id="Layer" class="s0" d="m23.6 28.1c1-0.9 2-1.7 3.1-2.6-0.1 0.3-0.3 0.5-0.3 0.7-0.3 0.8-0.4 1.3-1.1 1.7-0.8 0.4-1.9 0.9-2.7 1.4-0.1 0.1-0.1 0.1-0.2 0.1 0.2-0.6 0.7-1 1.2-1.3z"/>
	<path id="Layer" class="s0" d="m24.4 23.7c3.1-2.4 11.6-8.7 11.6-8.7 0 0-15.2 15.2-17.9 18q-0.1 0-0.1 0c0-0.3 1.9-10.3 2.1-10.7 0.3 1.1 0.5 2 0.8 3.1q2.3-2.8 4.5-5.6h0.1q-0.6 1.9-1.2 3.9z"/>
</svg>