<svg version="1.2" xmlns="http://www.w3.org/2000/svg" viewBox="0 0 37 38" width="37" height="38">
	<title>3-svg</title>
	<style>
		.s0 { fill: #eaefed } 
	</style>
	<path id="Layer" class="s0" d="m27.2 17.2q-0.4 0.2-0.7 0.5c0-0.5 0.3-0.7 0.7-0.9q0 0.2 0 0.4z"/>
	<path id="Layer" class="s0" d="m25.7 17.3q-0.1 0.2-0.2 0.3-0.4 0.3-0.7 0.6 0.1-0.4 0.1-0.8 0.1-0.1 0.1-0.2 0.7-0.9 1.4-1.8 0-0.1 0-0.1v0.1q-0.4 1-0.7 1.9z"/>
	<path id="Layer" class="s0" d="m25.5 20.8q0.7-0.6 1.4-1.2c-0.1 0.2-0.2 0.3-0.2 0.4-0.1 0.3-0.2 0.5-0.5 0.7-0.3 0.2-0.8 0.5-1.2 0.7 0.1-0.3 0.3-0.4 0.5-0.6z"/>
	<path id="Layer" class="s0" d="m25.8 18.9c1.4-1.1 5.2-3.9 5.2-3.9 0 0-6.7 6.7-8 8 0-0.1 0.9-4.6 0.9-4.8 0.2 0.5 0.2 0.9 0.4 1.4q1-1.2 2-2.5-0.2 0.9-0.5 1.8z"/>
</svg>