<svg width="33" height="33" viewBox="0 0 33 33" fill="none" xmlns="http://www.w3.org/2000/svg">
<mask id="mask0" mask-type="alpha" maskUnits="userSpaceOnUse" x="8" y="8" width="17" height="17">
<path fill-rule="evenodd" clip-rule="evenodd" d="M21.5875 23.721L16.2539 18.3874L10.9203 23.721C10.3312 24.3101 9.37599 24.3101 8.78686 23.721C8.19772 23.1318 8.19773 22.1767 8.78686 21.5875L14.1205 16.2539L8.78686 10.9203C8.19772 10.3312 8.19772 9.37601 8.78686 8.78687C9.37599 8.19774 10.3312 8.19774 10.9203 8.78687L16.2539 14.1205L21.5875 8.78687C22.1766 8.19774 23.1318 8.19774 23.721 8.78687C24.3101 9.37601 24.3101 10.3312 23.721 10.9203L18.3873 16.2539L23.721 21.5875C24.3101 22.1767 24.3101 23.1318 23.721 23.721C23.1318 24.3101 22.1766 24.3101 21.5875 23.721Z" fill="#00FFC5"/>
</mask>
<g mask="url(#mask0)">
<rect width="33" height="33" fill="#00FFC5"/>
</g>
</svg>
