<svg version="1.2" xmlns="http://www.w3.org/2000/svg" viewBox="0 0 17 17" width="17" height="17">
	<title>close-svg</title>
	<defs>
		<clipPath clipPathUnits="userSpaceOnUse" id="cp1">
			<path d="m13.59 15.72l-5.34-5.33-5.33 5.33c-0.59 0.59-1.54 0.59-2.13 0-0.59-0.59-0.59-1.54 0-2.13l5.33-5.34-5.33-5.33c-0.59-0.59-0.59-1.54 0-2.13 0.59-0.59 1.54-0.59 2.13 0l5.33 5.33 5.34-5.33c0.59-0.59 1.54-0.59 2.13 0 0.59 0.59 0.59 1.54 0 2.13l-5.33 5.33 5.33 5.34c0.59 0.59 0.59 1.54 0 2.13-0.59 0.59-1.54 0.59-2.13 0z"/>
		</clipPath>
	</defs>
	<style>
		.s0 { fill: #fe6c65 } 
	</style>
	<g id="Clip-Path" clip-path="url(#cp1)">
		<g id="Layer">
			<path id="Layer" class="s0" d="m-8-8h33v33h-33z"/>
		</g>
	</g>
</svg>